<svg width="33" height="30" viewBox="0 0 33 30" fill="none" xmlns="http://www.w3.org/2000/svg">
<path d="M15 13.5L3 6V21H18V24H3C2.175 24 1.469 23.7065 0.882 23.1195C0.294 22.5315 0 21.825 0 21V3C0 2.175 0.294 1.4685 0.882 0.8805C1.469 0.2935 2.175 0 3 0H27C27.825 0 28.5315 0.2935 29.1195 0.8805C29.7065 1.4685 30 2.175 30 3V10.5H27V6L15 13.5ZM15 10.5L27 3H3L15 10.5ZM27 30C25.35 30 23.9375 29.4125 22.7625 28.2375C21.5875 27.0625 21 25.65 21 24V17.25C21 16.2 21.3625 15.3125 22.0875 14.5875C22.8125 13.8625 23.7 13.5 24.75 13.5C25.8 13.5 26.6875 13.8625 27.4125 14.5875C28.1375 15.3125 28.5 16.2 28.5 17.25V24H25.5V17.25C25.5 17.05 25.425 16.875 25.275 16.725C25.125 16.575 24.95 16.5 24.75 16.5C24.55 16.5 24.375 16.575 24.225 16.725C24.075 16.875 24 17.05 24 17.25V24C24 24.825 24.2935 25.5315 24.8805 26.1195C25.4685 26.7065 26.175 27 27 27C27.825 27 28.5315 26.7065 29.1195 26.1195C29.7065 25.5315 30 24.825 30 24V18H33V24C33 25.65 32.4125 27.0625 31.2375 28.2375C30.0625 29.4125 28.65 30 27 30ZM3 6V3V21V12V6Z" fill="#efede5"/>
</svg>
