<svg width="36" height="36" viewBox="0 0 36 36" fill="none" xmlns="http://www.w3.org/2000/svg">
<g clip-path="url(#clip0_25_15)">
<path d="M18 36.0001C27.9411 36.0001 36 27.9412 36 18.0001C36 8.05894 27.9411 0 18 0C8.05887 0 0 8.05894 0 18.0001C0 27.9412 8.05887 36.0001 18 36.0001Z" fill="#1a2b26"/>
<path d="M18.002 12.59L8.994 12.611C8.99333 12.611 8.99266 12.611 8.992 12.611C8.95964 12.6055 8.92681 12.6031 8.894 12.604C8.76156 12.6061 8.63537 12.6607 8.54313 12.7558C8.45088 12.8508 8.40013 12.9786 8.402 13.111V24.501C8.402 24.6336 8.45468 24.7608 8.54844 24.8546C8.64221 24.9483 8.76939 25.001 8.902 25.001H27.093C27.2256 25.001 27.3528 24.9483 27.4466 24.8546C27.5403 24.7608 27.593 24.6336 27.593 24.501V13.175C27.6036 13.1041 27.5988 13.0317 27.579 12.9628C27.5592 12.8939 27.5248 12.8301 27.4781 12.7756C27.4315 12.7212 27.3736 12.6774 27.3086 12.6473C27.2435 12.6172 27.1727 12.6014 27.101 12.601L18.002 12.59ZM18.002 13.59H18.004L25.363 13.6L18.002 18.205L10.642 13.61L18.002 13.59ZM26.593 14.008V24H9.402V14.012L17.738 19.219C17.8175 19.2687 17.9093 19.295 18.003 19.295C18.0967 19.295 18.1885 19.2687 18.268 19.219L26.593 14.008Z" fill="#efede5"/>
</g>
<defs>
<clipPath id="clip0_25_15">
<rect width="36" height="36" fill="white"/>
</clipPath>
</defs>
</svg>
