<svg width="36" height="34" viewBox="0 0 36 34" fill="none" xmlns="http://www.w3.org/2000/svg">
<path d="M36 15.75C36 24.4485 27.9405 31.5 18 31.5C16.2172 31.5024 14.4418 31.2709 12.7192 30.8115C11.4052 31.4775 8.388 32.7555 3.312 33.588C2.862 33.66 2.52 33.192 2.69775 32.7735C3.49425 30.8925 4.21425 28.386 4.43025 26.1C1.674 23.3325 0 19.71 0 15.75C0 7.0515 8.0595 0 18 0C27.9405 0 36 7.0515 36 15.75ZM10.125 9C9.82663 9 9.54048 9.11853 9.32951 9.32951C9.11853 9.54048 9 9.82663 9 10.125C9 10.4234 9.11853 10.7095 9.32951 10.9205C9.54048 11.1315 9.82663 11.25 10.125 11.25H25.875C26.1734 11.25 26.4595 11.1315 26.6705 10.9205C26.8815 10.7095 27 10.4234 27 10.125C27 9.82663 26.8815 9.54048 26.6705 9.32951C26.4595 9.11853 26.1734 9 25.875 9H10.125ZM10.125 14.625C9.82663 14.625 9.54048 14.7435 9.32951 14.9545C9.11853 15.1655 9 15.4516 9 15.75C9 16.0484 9.11853 16.3345 9.32951 16.5455C9.54048 16.7565 9.82663 16.875 10.125 16.875H25.875C26.1734 16.875 26.4595 16.7565 26.6705 16.5455C26.8815 16.3345 27 16.0484 27 15.75C27 15.4516 26.8815 15.1655 26.6705 14.9545C26.4595 14.7435 26.1734 14.625 25.875 14.625H10.125ZM10.125 20.25C9.82663 20.25 9.54048 20.3685 9.32951 20.5795C9.11853 20.7905 9 21.0766 9 21.375C9 21.6734 9.11853 21.9595 9.32951 22.1705C9.54048 22.3815 9.82663 22.5 10.125 22.5H19.125C19.4234 22.5 19.7095 22.3815 19.9205 22.1705C20.1315 21.9595 20.25 21.6734 20.25 21.375C20.25 21.0766 20.1315 20.7905 19.9205 20.5795C19.7095 20.3685 19.4234 20.25 19.125 20.25H10.125Z" fill="#efede5"/>
</svg>
